<mxfile host="app.diagrams.net" modified="2024-05-22T11:04:19.724Z" agent="Mozilla/5.0 (Windows NT 10.0; Win64; x64) AppleWebKit/537.36 (KHTML, like Gecko) Chrome/124.0.0.0 Safari/537.36" etag="vntLaQG4a4LoRl5Y4mWY" version="24.4.4" type="github">
  <diagram name="Страница — 1" id="k2HhhS5dY2MLCkHCIRTp">
    <mxGraphModel dx="2074" dy="1847" grid="1" gridSize="10" guides="1" tooltips="1" connect="1" arrows="1" fold="1" page="1" pageScale="1" pageWidth="827" pageHeight="1169" math="0" shadow="0">
      <root>
        <mxCell id="0" />
        <mxCell id="1" parent="0" />
        <mxCell id="912V9UjIgnDU0TRUvTaP-16" style="rounded=0;orthogonalLoop=1;jettySize=auto;html=1;" edge="1" parent="1" source="912V9UjIgnDU0TRUvTaP-1" target="912V9UjIgnDU0TRUvTaP-20">
          <mxGeometry relative="1" as="geometry">
            <mxPoint x="180" y="280" as="sourcePoint" />
            <mxPoint x="550" y="300.0000000000001" as="targetPoint" />
          </mxGeometry>
        </mxCell>
        <mxCell id="912V9UjIgnDU0TRUvTaP-1" value="преподователь" style="shape=umlActor;verticalLabelPosition=bottom;verticalAlign=top;html=1;outlineConnect=0;" vertex="1" parent="1">
          <mxGeometry x="10" y="190" width="40" height="90" as="geometry" />
        </mxCell>
        <mxCell id="912V9UjIgnDU0TRUvTaP-2" value="ставить оценки" style="ellipse;whiteSpace=wrap;html=1;" vertex="1" parent="1">
          <mxGeometry x="320" y="280" width="120" height="80" as="geometry" />
        </mxCell>
        <mxCell id="912V9UjIgnDU0TRUvTaP-10" style="rounded=0;orthogonalLoop=1;jettySize=auto;html=1;entryX=0.5;entryY=1;entryDx=0;entryDy=0;" edge="1" parent="1" target="912V9UjIgnDU0TRUvTaP-2">
          <mxGeometry relative="1" as="geometry">
            <mxPoint x="540" y="290" as="targetPoint" />
            <mxPoint x="20" y="400.0000000000002" as="sourcePoint" />
          </mxGeometry>
        </mxCell>
        <mxCell id="912V9UjIgnDU0TRUvTaP-30" style="rounded=0;orthogonalLoop=1;jettySize=auto;html=1;exitX=0.5;exitY=0.5;exitDx=0;exitDy=0;exitPerimeter=0;" edge="1" parent="1" source="912V9UjIgnDU0TRUvTaP-9" target="912V9UjIgnDU0TRUvTaP-1">
          <mxGeometry relative="1" as="geometry" />
        </mxCell>
        <mxCell id="912V9UjIgnDU0TRUvTaP-32" style="rounded=0;orthogonalLoop=1;jettySize=auto;html=1;entryX=0.5;entryY=1;entryDx=0;entryDy=0;" edge="1" parent="1" source="912V9UjIgnDU0TRUvTaP-9" target="912V9UjIgnDU0TRUvTaP-31">
          <mxGeometry relative="1" as="geometry" />
        </mxCell>
        <mxCell id="912V9UjIgnDU0TRUvTaP-9" value="кл.рук&lt;div&gt;&lt;br&gt;&lt;/div&gt;" style="shape=umlActor;verticalLabelPosition=bottom;verticalAlign=top;html=1;outlineConnect=0;" vertex="1" parent="1">
          <mxGeometry y="350" width="40" height="80" as="geometry" />
        </mxCell>
        <mxCell id="912V9UjIgnDU0TRUvTaP-18" style="rounded=0;orthogonalLoop=1;jettySize=auto;html=1;" edge="1" parent="1" source="912V9UjIgnDU0TRUvTaP-14" target="912V9UjIgnDU0TRUvTaP-15">
          <mxGeometry relative="1" as="geometry" />
        </mxCell>
        <mxCell id="912V9UjIgnDU0TRUvTaP-14" value="опубликовать пост с инфой" style="ellipse;whiteSpace=wrap;html=1;" vertex="1" parent="1">
          <mxGeometry x="80" y="70" width="120" height="80" as="geometry" />
        </mxCell>
        <mxCell id="912V9UjIgnDU0TRUvTaP-15" value="зам дир." style="shape=umlActor;verticalLabelPosition=bottom;verticalAlign=top;html=1;outlineConnect=0;" vertex="1" parent="1">
          <mxGeometry x="290" y="70" width="30" height="60" as="geometry" />
        </mxCell>
        <mxCell id="912V9UjIgnDU0TRUvTaP-53" style="rounded=0;orthogonalLoop=1;jettySize=auto;html=1;dashed=1;dashPattern=8 8;" edge="1" parent="1" source="912V9UjIgnDU0TRUvTaP-19" target="912V9UjIgnDU0TRUvTaP-45">
          <mxGeometry relative="1" as="geometry" />
        </mxCell>
        <mxCell id="912V9UjIgnDU0TRUvTaP-54" style="rounded=0;orthogonalLoop=1;jettySize=auto;html=1;dashed=1;dashPattern=8 8;" edge="1" parent="1" source="912V9UjIgnDU0TRUvTaP-19" target="912V9UjIgnDU0TRUvTaP-49">
          <mxGeometry relative="1" as="geometry" />
        </mxCell>
        <mxCell id="912V9UjIgnDU0TRUvTaP-55" value="&quot;include&quot;" style="edgeLabel;html=1;align=center;verticalAlign=middle;resizable=0;points=[];" vertex="1" connectable="0" parent="912V9UjIgnDU0TRUvTaP-54">
          <mxGeometry x="0.1909" y="1" relative="1" as="geometry">
            <mxPoint x="-10" y="-71" as="offset" />
          </mxGeometry>
        </mxCell>
        <mxCell id="912V9UjIgnDU0TRUvTaP-19" value="составить распис." style="ellipse;whiteSpace=wrap;html=1;" vertex="1" parent="1">
          <mxGeometry x="440" y="10" width="120" height="80" as="geometry" />
        </mxCell>
        <mxCell id="912V9UjIgnDU0TRUvTaP-20" value="оставлять комментарии к новостям" style="ellipse;whiteSpace=wrap;html=1;" vertex="1" parent="1">
          <mxGeometry x="440" y="110" width="120" height="80" as="geometry" />
        </mxCell>
        <mxCell id="912V9UjIgnDU0TRUvTaP-22" style="rounded=0;orthogonalLoop=1;jettySize=auto;html=1;entryX=0.05;entryY=0.661;entryDx=0;entryDy=0;entryPerimeter=0;" edge="1" parent="1" source="912V9UjIgnDU0TRUvTaP-15" target="912V9UjIgnDU0TRUvTaP-20">
          <mxGeometry relative="1" as="geometry" />
        </mxCell>
        <mxCell id="912V9UjIgnDU0TRUvTaP-33" style="rounded=0;orthogonalLoop=1;jettySize=auto;html=1;entryX=1;entryY=0.5;entryDx=0;entryDy=0;" edge="1" parent="1" source="912V9UjIgnDU0TRUvTaP-23" target="912V9UjIgnDU0TRUvTaP-20">
          <mxGeometry relative="1" as="geometry" />
        </mxCell>
        <mxCell id="912V9UjIgnDU0TRUvTaP-36" style="rounded=0;orthogonalLoop=1;jettySize=auto;html=1;entryX=1;entryY=0.5;entryDx=0;entryDy=0;" edge="1" parent="1" source="912V9UjIgnDU0TRUvTaP-23" target="912V9UjIgnDU0TRUvTaP-34">
          <mxGeometry relative="1" as="geometry" />
        </mxCell>
        <mxCell id="912V9UjIgnDU0TRUvTaP-37" style="rounded=0;orthogonalLoop=1;jettySize=auto;html=1;entryX=1;entryY=0.5;entryDx=0;entryDy=0;" edge="1" parent="1" source="912V9UjIgnDU0TRUvTaP-23" target="912V9UjIgnDU0TRUvTaP-35">
          <mxGeometry relative="1" as="geometry" />
        </mxCell>
        <mxCell id="912V9UjIgnDU0TRUvTaP-23" value="ученик&lt;div&gt;&lt;br&gt;&lt;/div&gt;" style="shape=umlActor;verticalLabelPosition=bottom;verticalAlign=top;html=1;outlineConnect=0;" vertex="1" parent="1">
          <mxGeometry x="760" y="290" width="30" height="60" as="geometry" />
        </mxCell>
        <mxCell id="912V9UjIgnDU0TRUvTaP-28" value="разместить материал&lt;div&gt;&lt;br&gt;&lt;/div&gt;" style="ellipse;whiteSpace=wrap;html=1;" vertex="1" parent="1">
          <mxGeometry x="120" y="260" width="120" height="80" as="geometry" />
        </mxCell>
        <mxCell id="912V9UjIgnDU0TRUvTaP-29" style="rounded=0;orthogonalLoop=1;jettySize=auto;html=1;entryX=0.021;entryY=0.579;entryDx=0;entryDy=0;entryPerimeter=0;" edge="1" parent="1" source="912V9UjIgnDU0TRUvTaP-1" target="912V9UjIgnDU0TRUvTaP-28">
          <mxGeometry relative="1" as="geometry" />
        </mxCell>
        <mxCell id="912V9UjIgnDU0TRUvTaP-31" value="собрать род.собрание" style="ellipse;whiteSpace=wrap;html=1;" vertex="1" parent="1">
          <mxGeometry x="60" y="410" width="120" height="80" as="geometry" />
        </mxCell>
        <mxCell id="912V9UjIgnDU0TRUvTaP-34" value="узнать оценки" style="ellipse;whiteSpace=wrap;html=1;" vertex="1" parent="1">
          <mxGeometry x="510" y="310" width="120" height="80" as="geometry" />
        </mxCell>
        <mxCell id="912V9UjIgnDU0TRUvTaP-35" value="узнать расписание" style="ellipse;whiteSpace=wrap;html=1;" vertex="1" parent="1">
          <mxGeometry x="510" y="400" width="120" height="80" as="geometry" />
        </mxCell>
        <mxCell id="912V9UjIgnDU0TRUvTaP-41" value="" style="rounded=0;orthogonalLoop=1;jettySize=auto;html=1;" edge="1" parent="1" source="912V9UjIgnDU0TRUvTaP-38" target="912V9UjIgnDU0TRUvTaP-35">
          <mxGeometry relative="1" as="geometry" />
        </mxCell>
        <mxCell id="912V9UjIgnDU0TRUvTaP-38" value="узнать среднюю оценку за какой то год" style="ellipse;whiteSpace=wrap;html=1;" vertex="1" parent="1">
          <mxGeometry x="440" y="520" width="120" height="80" as="geometry" />
        </mxCell>
        <mxCell id="912V9UjIgnDU0TRUvTaP-40" style="rounded=0;orthogonalLoop=1;jettySize=auto;html=1;" edge="1" parent="1" source="912V9UjIgnDU0TRUvTaP-39" target="912V9UjIgnDU0TRUvTaP-35">
          <mxGeometry relative="1" as="geometry" />
        </mxCell>
        <mxCell id="912V9UjIgnDU0TRUvTaP-39" value="узнать среднюю оценку за предмет" style="ellipse;whiteSpace=wrap;html=1;" vertex="1" parent="1">
          <mxGeometry x="640" y="520" width="120" height="80" as="geometry" />
        </mxCell>
        <mxCell id="912V9UjIgnDU0TRUvTaP-43" style="rounded=0;orthogonalLoop=1;jettySize=auto;html=1;entryX=0;entryY=0.375;entryDx=0;entryDy=0;entryPerimeter=0;" edge="1" parent="1" source="912V9UjIgnDU0TRUvTaP-15" target="912V9UjIgnDU0TRUvTaP-19">
          <mxGeometry relative="1" as="geometry" />
        </mxCell>
        <mxCell id="912V9UjIgnDU0TRUvTaP-44" value="расписание занятий&amp;nbsp;" style="ellipse;whiteSpace=wrap;html=1;" vertex="1" parent="1">
          <mxGeometry x="540" y="-100" width="120" height="80" as="geometry" />
        </mxCell>
        <mxCell id="912V9UjIgnDU0TRUvTaP-45" value="расписание каникул" style="ellipse;whiteSpace=wrap;html=1;" vertex="1" parent="1">
          <mxGeometry x="590" y="-20" width="120" height="80" as="geometry" />
        </mxCell>
        <mxCell id="912V9UjIgnDU0TRUvTaP-49" value="расписание мероприятий" style="ellipse;whiteSpace=wrap;html=1;" vertex="1" parent="1">
          <mxGeometry x="590" y="70" width="120" height="80" as="geometry" />
        </mxCell>
        <mxCell id="912V9UjIgnDU0TRUvTaP-51" style="rounded=0;orthogonalLoop=1;jettySize=auto;html=1;exitX=0.5;exitY=0;exitDx=0;exitDy=0;entryX=0.072;entryY=0.847;entryDx=0;entryDy=0;entryPerimeter=0;dashed=1;dashPattern=8 8;" edge="1" parent="1" source="912V9UjIgnDU0TRUvTaP-19" target="912V9UjIgnDU0TRUvTaP-44">
          <mxGeometry relative="1" as="geometry" />
        </mxCell>
        <mxCell id="912V9UjIgnDU0TRUvTaP-56" value="&quot;include&quot;" style="text;html=1;align=center;verticalAlign=middle;resizable=0;points=[];autosize=1;strokeColor=none;fillColor=none;" vertex="1" parent="1">
          <mxGeometry x="555" y="48" width="70" height="30" as="geometry" />
        </mxCell>
        <mxCell id="912V9UjIgnDU0TRUvTaP-57" value="&quot;include&quot;" style="text;html=1;align=center;verticalAlign=middle;resizable=0;points=[];autosize=1;strokeColor=none;fillColor=none;" vertex="1" parent="1">
          <mxGeometry x="470" y="-40" width="70" height="30" as="geometry" />
        </mxCell>
        <mxCell id="912V9UjIgnDU0TRUvTaP-58" value="прикрепление файла к комментариям" style="ellipse;whiteSpace=wrap;html=1;" vertex="1" parent="1">
          <mxGeometry x="770" y="130" width="120" height="80" as="geometry" />
        </mxCell>
        <mxCell id="912V9UjIgnDU0TRUvTaP-59" style="rounded=0;orthogonalLoop=1;jettySize=auto;html=1;entryX=1.014;entryY=0.624;entryDx=0;entryDy=0;entryPerimeter=0;dashed=1;dashPattern=8 8;" edge="1" parent="1" source="912V9UjIgnDU0TRUvTaP-58" target="912V9UjIgnDU0TRUvTaP-20">
          <mxGeometry relative="1" as="geometry" />
        </mxCell>
        <mxCell id="912V9UjIgnDU0TRUvTaP-61" value="&quot;extend&quot;" style="text;html=1;align=center;verticalAlign=middle;resizable=0;points=[];autosize=1;strokeColor=none;fillColor=none;" vertex="1" parent="1">
          <mxGeometry x="695" y="128" width="70" height="30" as="geometry" />
        </mxCell>
      </root>
    </mxGraphModel>
  </diagram>
</mxfile>
